<svg xmlns="http://www.w3.org/2000/svg" xmlns:xlink="http://www.w3.org/1999/xlink" viewBox="0 0 240 60"><defs><style>.cls-1{fill:none;}.cls-2{fill:#4c4948;}.cls-3{fill:#231815;}.cls-4{clip-path:url(#clip-path);}.cls-5{fill:#fbc200;}.cls-6{fill:#aec37b;}.cls-7{fill:#a3d7d2;}</style><clipPath id="clip-path"><rect class="cls-1" x="8.29" y="2.99" width="54.44" height="53.31"/></clipPath></defs><title>アセット 2</title><g id="レイヤー_2" data-name="レイヤー 2"><g id="レイヤー_1-2" data-name="レイヤー 1"><path class="cls-2" d="M77,28.1a2.5,2.5,0,0,0,2.5,2.5h3.86a2.5,2.5,0,0,1,2.5,2.5V51.77a2.51,2.51,0,0,0,2.5,2.5h.13a2.51,2.51,0,0,0,2.5-2.5V33.1a2.51,2.51,0,0,1,2.5-2.5h3.86a2.51,2.51,0,0,0,2.5-2.5v-.2a2.5,2.5,0,0,0-2.5-2.5H79.47A2.5,2.5,0,0,0,77,27.9Z"/><path class="cls-2" d="M108.48,51.17a2.51,2.51,0,0,0,2.5,2.5h16.59a2.51,2.51,0,0,0,2.5-2.5V51a2.51,2.51,0,0,0-2.5-2.5H116.14a2.5,2.5,0,0,1-2.5-2.5V44a2.5,2.5,0,0,1,2.5-2.5h11.43a2.51,2.51,0,0,0,2.5-2.5v-.17a2.51,2.51,0,0,0-2.5-2.5H116.14a2.5,2.5,0,0,1-2.5-2.5V33.1a2.51,2.51,0,0,1,2.5-2.5h11.43a2.51,2.51,0,0,0,2.5-2.5v-.16a2.51,2.51,0,0,0-2.5-2.5H111a2.5,2.5,0,0,0-2.5,2.5Z"/><path class="cls-2" d="M137.63,28.1a2.51,2.51,0,0,0,2.5,2.5H144a2.51,2.51,0,0,1,2.5,2.5V51.77a2.51,2.51,0,0,0,2.5,2.5h.13a2.51,2.51,0,0,0,2.5-2.5V33.1a2.5,2.5,0,0,1,2.5-2.5H158a2.5,2.5,0,0,0,2.5-2.5v-.2a2.5,2.5,0,0,0-2.5-2.5H140.12a2.51,2.51,0,0,0-2.5,2.5Z"/><path class="cls-2" d="M180,24.78a11.11,11.11,0,0,0-8.82,4,16.17,16.17,0,0,0-2.9,6.72,36.09,36.09,0,0,0-.42,5v11.3a2.51,2.51,0,0,0,2.5,2.5h.17a2.51,2.51,0,0,0,2.5-2.5V47.52a2.5,2.5,0,0,1,2.5-2.5h8.92a2.5,2.5,0,0,1,2.5,2.5v4.25a2.51,2.51,0,0,0,2.5,2.5h.16a2.51,2.51,0,0,0,2.5-2.5V38a13.68,13.68,0,0,0-3.35-9.2,11.11,11.11,0,0,0-8.75-4m-5,7.43a6.56,6.56,0,0,1,9.87,0,7.4,7.4,0,0,1,1.63,3.29,31.94,31.94,0,0,1,.39,3.4c0,.51-1.12.93-2.5.93h-8.92c-1.37,0-2.5-.84-2.5-1.86h0a8.52,8.52,0,0,1,2-5.76"/><path class="cls-2" d="M222.5,24.78a2.51,2.51,0,0,0-2.5,2.5v13.9a7.83,7.83,0,0,1-2.27,5.66,7.23,7.23,0,0,1-10.64,0,7,7,0,0,1-1.81-3.21,33.45,33.45,0,0,1-.45-5V27.27a2.51,2.51,0,0,0-2.5-2.5h-.17a2.51,2.51,0,0,0-2.5,2.5v13.9a12.9,12.9,0,0,0,3.69,9.19,12.44,12.44,0,0,0,18.08,0,15.15,15.15,0,0,0,3.29-6.75,32.14,32.14,0,0,0,.47-5V27.27a2.51,2.51,0,0,0-2.5-2.5Z"/><path class="cls-3" d="M77.71,12.41l.93.17a9.4,9.4,0,0,1-.86,2.86A4.3,4.3,0,0,0,77,15,7.09,7.09,0,0,0,77.71,12.41ZM80,9.91l.76-.37a9.85,9.85,0,0,1,1.28,2.31l-.81.44q-.05-.17-.29-.71l-1,.06v4.61h-1V11.71l-1.9.1-.1-.9.78,0q.53-.6.67-.79a9.21,9.21,0,0,0-1.42-1.43l.5-.64.27.2A13.73,13.73,0,0,0,79,6.14l.91.43Q79,8,78.45,8.73a6.09,6.09,0,0,1,.6.62,20.44,20.44,0,0,0,1.3-2l.88.44a33.23,33.23,0,0,1-2.35,3l1.66-.09Zm.27,2.72.82-.31A9.76,9.76,0,0,1,82,14.44l-.86.35A9.72,9.72,0,0,0,80.31,12.63Zm3.57,2.56h1.78a.48.48,0,0,0,.51-.3,6.08,6.08,0,0,0,.17-1.41,2.78,2.78,0,0,0,1,.42,4,4,0,0,1-.4,1.79,1.31,1.31,0,0,1-1.17.47H83.78a2,2,0,0,1-1.26-.3,1.57,1.57,0,0,1-.34-1.18V10.11h3.49V7.71H81.89v-1h4.8v5h-1v-.63H83.2v3.61c0,.22,0,.36.12.42A1.06,1.06,0,0,0,83.88,15.19Z"/><path class="cls-3" d="M100.17,8.12H95.8c0,.29-.09.62-.15,1h4v6a1.35,1.35,0,0,1-.12.63.74.74,0,0,1-.41.32,7,7,0,0,1-1.89.15,3.72,3.72,0,0,0-.37-.88,14.91,14.91,0,0,0,1.49,0,.27.27,0,0,0,.19-.05.25.25,0,0,0,.05-.18v-5H92.1v6.16h-1V9.12h3.57c0-.09,0-.24.06-.47s.06-.4.07-.53H90.57v-1h4.31q0-.55.06-1l1.13.11q0,.17-.07.51l-.06.4h4.23Zm-2.06,6H95.82V16h-1v-1.8H92.64v-.82h2.21V12.4h-2V11.6h1a4.64,4.64,0,0,0-.52-1.22l.79-.2a4.83,4.83,0,0,1,.58,1.25l-.59.18H96a11.78,11.78,0,0,0,.53-1.46l.92.2q-.31.74-.56,1.26H97.9v.81H95.82v.95h2.29Z"/><path class="cls-3" d="M106.1,18.09a3.49,3.49,0,0,1-1.82-.42,1.31,1.31,0,0,1-.69-1.18,1.54,1.54,0,0,1,.88-1.31v-.06a1.08,1.08,0,0,1-.55-1,1.4,1.4,0,0,1,.67-1.12v0a2,2,0,0,1-.78-1.61,2,2,0,0,1,.68-1.59,2.45,2.45,0,0,1,1.66-.59,2.55,2.55,0,0,1,.88.16h2.14v.95H108a1.54,1.54,0,0,1,.4,1.11,1.91,1.91,0,0,1-.64,1.53,2.39,2.39,0,0,1-1.62.56,2.11,2.11,0,0,1-.85-.19.87.87,0,0,0-.33.64q0,.59,1,.59h1.12q2.18,0,2.18,1.47a1.79,1.79,0,0,1-.88,1.51A4,4,0,0,1,106.1,18.09Zm.18-.84a2.29,2.29,0,0,0,1.26-.32.91.91,0,0,0,.5-.75.54.54,0,0,0-.28-.52,1.88,1.88,0,0,0-.86-.15H106a4,4,0,0,1-.81-.09,1.09,1.09,0,0,0-.53.88.77.77,0,0,0,.44.69A2.37,2.37,0,0,0,106.28,17.25ZM105,11.34a1.32,1.32,0,0,0,.33.95,1.08,1.08,0,0,0,.82.35,1.06,1.06,0,0,0,.81-.35,1.34,1.34,0,0,0,.33-.95,1.33,1.33,0,0,0-.32-.94,1.07,1.07,0,0,0-.82-.35,1.09,1.09,0,0,0-.82.34A1.31,1.31,0,0,0,105,11.34Z"/><path class="cls-3" d="M115,15.51a2.7,2.7,0,0,1-2-.86,3.15,3.15,0,0,1-.84-2.3A3.21,3.21,0,0,1,113,10a2.78,2.78,0,0,1,4,0,3.2,3.2,0,0,1,.84,2.32,3.15,3.15,0,0,1-.84,2.3A2.72,2.72,0,0,1,115,15.51Zm-1.12-1.61a1.29,1.29,0,0,0,1.12.58,1.34,1.34,0,0,0,1.13-.58,2.56,2.56,0,0,0,.42-1.55,2.59,2.59,0,0,0-.42-1.55,1.33,1.33,0,0,0-1.13-.58,1.3,1.3,0,0,0-1.12.58,2.64,2.64,0,0,0-.41,1.55A2.59,2.59,0,0,0,113.87,13.9Z"/><path class="cls-3" d="M123.94,15.51a2.7,2.7,0,0,1-2-.86,3.15,3.15,0,0,1-.84-2.3,3.21,3.21,0,0,1,.83-2.33,2.78,2.78,0,0,1,4,0,3.2,3.2,0,0,1,.84,2.32,3.15,3.15,0,0,1-.84,2.3A2.72,2.72,0,0,1,123.94,15.51Zm-1.12-1.61a1.29,1.29,0,0,0,1.12.58,1.34,1.34,0,0,0,1.13-.58,2.56,2.56,0,0,0,.42-1.55,2.59,2.59,0,0,0-.42-1.55,1.33,1.33,0,0,0-1.13-.58,1.3,1.3,0,0,0-1.12.58,2.64,2.64,0,0,0-.41,1.55A2.59,2.59,0,0,0,122.82,13.9Z"/><path class="cls-3" d="M132.56,15.51a2.22,2.22,0,0,1-1.83-.84,3.6,3.6,0,0,1-.68-2.32,3.39,3.39,0,0,1,.77-2.3,2.35,2.35,0,0,1,1.83-.89,2,2,0,0,1,.84.17,3.56,3.56,0,0,1,.78.52l-.05-1V6.6h1.27v8.77h-1l-.11-.68h0A2.4,2.4,0,0,1,132.56,15.51Zm.29-1a1.83,1.83,0,0,0,1.38-.74v-3a1.94,1.94,0,0,0-1.33-.55,1.32,1.32,0,0,0-1.09.57,2.48,2.48,0,0,0-.44,1.53,2.74,2.74,0,0,0,.39,1.58A1.26,1.26,0,0,0,132.85,14.47Z"/><path class="cls-3" d="M147.73,14.14l-.66.64-2.92-2.93-2.93,2.93-.66-.64,2.94-2.93-2.94-2.92.67-.66,2.92,2.94,2.92-2.94.66.66-2.94,2.92Z"/><path class="cls-3" d="M157.69,9.29a1,1,0,0,0,.43-.18A.77.77,0,0,1,158.5,9a1,1,0,0,1,.5.26.7.7,0,0,1,.31.61.43.43,0,0,1-.24.35,1.87,1.87,0,0,0-.34.57,9.81,9.81,0,0,1-3,3.68A10.13,10.13,0,0,1,153,15.76l-.41-.6a8.38,8.38,0,0,0,5.27-5.08l-.63,0a3.37,3.37,0,0,1-.57,0,7.9,7.9,0,0,1-3,2.62l-.46-.52a7.48,7.48,0,0,0,2.33-2.2,2.81,2.81,0,0,0,.55-1c0-.06-.09-.15-.3-.29l.26-.52q1.33,0,1.31.67a1,1,0,0,1-.18.49Z"/><path class="cls-3" d="M164.5,15.36a4.79,4.79,0,0,0,2.5-2.23,5,5,0,0,0,.33-2V9.55a1.48,1.48,0,0,0-.11-.67.78.78,0,0,0-.35-.31l.19-.58q.94-.13,1.24.14a.5.5,0,0,1,.21.58,2.93,2.93,0,0,0-.12.52v2a5,5,0,0,1-.66,2.66,5.46,5.46,0,0,1-2.88,2.09Zm.23-6.94q1.26.1,1.26.89a.29.29,0,0,1,0,.09v.08a6.81,6.81,0,0,0-.05.71q0,.24,0,1.88l-1,.08q0-1.37,0-2.38a1,1,0,0,0-.08-.45.7.7,0,0,0-.34-.26Z"/><path class="cls-3" d="M178,11a.57.57,0,0,0-.05.18,12,12,0,0,1-.09,1.69h.32l3.17-.14-.3,1q-.75-.05-1.78-.05a32.82,32.82,0,0,0-4.37.25l-.3,0a1.31,1.31,0,0,1-1.16-.91l.43-.46a2,2,0,0,0,1.42.41q.55,0,1.63-.05a10.09,10.09,0,0,0,0-2l-1,.16-.35,0a1.27,1.27,0,0,1-1.17-.78l.43-.48a1.84,1.84,0,0,0,1.18.32,26.8,26.8,0,0,0,4.22-.29l-.12,1q-1.07-.06-1.6-.06H178S178,10.86,178,11Z"/><path class="cls-3" d="M190.78,11.19a.87.87,0,0,1,.09.56,3.2,3.2,0,0,0,0,.45q0,2.17.09,3.59l-1.16.06q.13-1.57.13-3.92a9.33,9.33,0,0,1-3.68,1.89l-.39-.71a11,11,0,0,0,4.39-2.88q1-1.15,1-1.44,0-.1-.13-.16l.25-.59q1.19.29,1.19.92a1,1,0,0,1-.29.57A13.13,13.13,0,0,1,190.78,11.19Z"/><path class="cls-3" d="M198.84,11.35a3,3,0,0,1-.49.05,1.32,1.32,0,0,1-1.16-.7l.41-.56a1.59,1.59,0,0,0,1,.28q1.18,0,3.77-.26.78-.05,2.42-.09l0,.92q-2,0-2.57,0-.08,0-.17.52a6.4,6.4,0,0,1-1.28,2.73,6.57,6.57,0,0,1-2.85,2l-.42-.59a5.58,5.58,0,0,0,2.73-2.28,5.32,5.32,0,0,0,.69-1.87.62.62,0,0,0,0-.39A18.27,18.27,0,0,0,198.84,11.35Zm.4-3a1.83,1.83,0,0,0,1,.23,22,22,0,0,0,3-.25l0,.93a17,17,0,0,0-3.05.21l-.37,0a1.29,1.29,0,0,1-1.07-.68Z"/><path class="cls-3" d="M213.23,12.2a.72.72,0,0,1,.07.45,2.65,2.65,0,0,0,0,.35q0,1.74.06,2.88l-.92,0q.11-1.25.11-3.14a7.46,7.46,0,0,1-3,1.51l-.31-.57a8.83,8.83,0,0,0,3.52-2.3q.79-.92.79-1.15s0-.09-.11-.13l.2-.47q1,.23,1,.74a.81.81,0,0,1-.24.45A11,11,0,0,1,213.23,12.2Z"/><path class="cls-3" d="M220.33,9a1.18,1.18,0,0,0,.87.33,26.47,26.47,0,0,0,3.47-.23h.15a.65.65,0,0,0,.31-.15.65.65,0,0,1,.31-.1,1,1,0,0,1,.61.31.77.77,0,0,1,.27.46.4.4,0,0,1-.23.42,1.33,1.33,0,0,0-.19.33,9,9,0,0,1-2.21,3.48,8.33,8.33,0,0,1-3.88,2l-.28-.72a7.86,7.86,0,0,0,3.64-2.31,8.09,8.09,0,0,0,1.73-3q-2.66.28-3.59.46l-.28,0a1.26,1.26,0,0,1-1.19-.86Zm5.56-1.1a9.12,9.12,0,0,1,1.68.82l-.56.6a6.55,6.55,0,0,0-1.45-.9Zm.82-1a9.12,9.12,0,0,1,1.68.82l-.56.6a6.54,6.54,0,0,0-1.45-.9Z"/><g class="cls-4"><path class="cls-5" d="M64.5,55.54a11.87,11.87,0,0,1-7.89-3.11A10.77,10.77,0,0,1,55,50.53a10.78,10.78,0,0,1-1.58,1.9,11.86,11.86,0,0,1-16,0,10.78,10.78,0,0,1-1.58-1.9,10.77,10.77,0,0,1-1.58,1.9,11.86,11.86,0,0,1-16,0,10.78,10.78,0,0,1-1.58-1.9,10.78,10.78,0,0,1-1.58,1.9A11.88,11.88,0,0,1,7,55.53l.19-4.3a7.56,7.56,0,0,0,5-2c1.57-1.52,2.37-3.91,2.37-7.1h4.3c0,3.18.8,5.57,2.37,7.1a7.57,7.57,0,0,0,5,1.95h.18a7.56,7.56,0,0,0,5-2c1.57-1.52,2.37-3.91,2.37-7.1H38c0,3.18.8,5.57,2.37,7.1a7.57,7.57,0,0,0,5,1.95h.18a7.56,7.56,0,0,0,5-2c1.57-1.52,2.37-3.91,2.37-7.1h4.3c0,3.21.81,5.61,2.4,7.13a7.48,7.48,0,0,0,4.93,1.92l.19,4.3Z"/><polygon class="cls-6" points="16.39 18.06 5.39 8.17 8.27 4.97 16.39 12.28 25.95 3.67 35.52 12.28 45.08 3.67 54.65 12.28 62.78 4.97 65.66 8.17 54.65 18.06 45.08 9.46 35.52 18.06 25.95 9.46 16.39 18.06"/><path class="cls-7" d="M63.2,34.53c-3,0-4.57-1.88-5.69-3.24s-1.45-1.67-2.37-1.67-1.35.43-2.37,1.67-2.66,3.24-5.69,3.24-4.57-1.88-5.69-3.25S39.95,29.61,39,29.61s-1.35.43-2.36,1.67S34,34.53,31,34.53s-4.57-1.88-5.69-3.25-1.45-1.67-2.36-1.67-1.35.43-2.36,1.67-2.66,3.25-5.69,3.25-4.57-1.88-5.69-3.25-1.45-1.67-2.36-1.67v-4.3c3,0,4.57,1.88,5.69,3.25s1.45,1.67,2.36,1.67,1.35-.43,2.36-1.67,2.66-3.25,5.69-3.25,4.57,1.88,5.69,3.25,1.45,1.67,2.36,1.67,1.35-.43,2.36-1.67S36,25.31,39,25.31s4.57,1.88,5.69,3.25,1.45,1.67,2.36,1.67,1.35-.43,2.37-1.67,2.66-3.24,5.69-3.24,4.57,1.88,5.69,3.24,1.45,1.67,2.37,1.67Z"/></g><rect class="cls-1" width="240" height="60"/></g></g></svg>