<svg xmlns="http://www.w3.org/2000/svg" viewBox="0 0 284 52"><defs><style>.a{fill:#dff202;}.b{fill:#fff;}</style></defs><title>アートボード 1 のコピー</title><path class="a" d="M58.68408,9.168a5.81619,5.81619,0,0,0-1.49707.29687,7.26034,7.26034,0,0,0-1.57471.71,5.38383,5.38383,0,0,0-1.45849,1.30372,6.81165,6.81165,0,0,0-.96826,2.05224Q51.353,19.49341,48.92676,27.457q-2.42726,7.96362-5.24024,16.97266h-2.377L32.0625,16.21729l-9.61279,28.2124H20.16992q-2.55541-9.03516-5.2915-18.75391-2.73633-9.7185-3.66553-13.02295a4.54094,4.54094,0,0,0-.68408-1.41992A4.95956,4.95956,0,0,0,7.79248,9.439,9.23607,9.23607,0,0,0,6.231,9.168V7.33545H21.16211V9.168a22.89921,22.89921,0,0,0-3.34277.38721q-1.38062.28418-1.37989.95507a4.03865,4.03865,0,0,0,.07666.68409q.07764.42627.1294.68408.59253,2.272,2.10107,7.51123,1.50879,5.24048,4.47461,15.69336l9.1416-27.23145h2.52637l9.22461,27.81153q1.86474-6.41163,3.21143-11.2085,1.34691-4.79662,2.22753-8.20947.62111-2.40455.77588-3.29541a9.07358,9.07358,0,0,0,.15479-1.51026q0-.87671-1.2002-1.47119A11.35166,11.35166,0,0,0,45.39844,9.168V7.33545H58.68408Z"/><path class="a" d="M91.23535,33.1748l-.69726,10.79H60.12988v-1.833q.77418-.05127,2.06494-.21924a7.00009,7.00009,0,0,0,1.67774-.34864,2.35563,2.35563,0,0,0,1.14892-1.00634,3.39844,3.39844,0,0,0,.32276-1.57471V12.65283a3.78875,3.78875,0,0,0-.28418-1.51025,2.20433,2.20433,0,0,0-1.1875-1.07129A8.79348,8.79348,0,0,0,62.001,9.47754a14.23216,14.23216,0,0,0-1.8711-.30957V7.33545H88.47314v8.82812h-1.936a11.9213,11.9213,0,0,0-2.23291-4.16894q-1.71679-2.20678-3.26563-2.41358-.80054-.10252-1.91015-.15478-1.11036-.05127-2.52979-.05176H70.84229V23.93359h4.13037a8.24912,8.24912,0,0,0,2.9038-.37451,3.97156,3.97156,0,0,0,1.61329-1.252,6.67584,6.67584,0,0,0,.96826-2.00049,12.59816,12.59816,0,0,0,.52929-2.36182h1.936v14.352h-1.936a11.58943,11.58943,0,0,0-.55517-2.62011,6.70489,6.70489,0,0,0-.94238-2.00049,3.71877,3.71877,0,0,0-1.81983-1.31641,9.55257,9.55257,0,0,0-2.69726-.30957H70.84229V37.02881a11.49426,11.49426,0,0,0,.23242,2.603,2.41364,2.41364,0,0,0,.90332,1.44287,3.86518,3.86518,0,0,0,1.833.63183,29.21962,29.21962,0,0,0,3.30419.1416h2.24561A22.26949,22.26949,0,0,0,81.71,41.74463a13.81409,13.81409,0,0,0,2.02637-.374,3.09731,3.09731,0,0,0,1.48437-.73584,16.49979,16.49979,0,0,0,2.49073-3.75586,25.28165,25.28165,0,0,0,1.665-3.70411Z"/><path class="b" d="M151.81982,43.96484H135.63428v-1.833q.87744-.02492,2.25879-.18067a5.69589,5.69589,0,0,0,1.89746-.43847,3.35888,3.35888,0,0,0,1.17431-1.123,3.074,3.074,0,0,0,.37452-1.5874V12.1626h-.38721L128.4585,43.37109h-1.291l-11.8999-31.854h-.33545V33.38135a21.88591,21.88591,0,0,0,.3999,4.82715,4.47817,4.47817,0,0,0,1.22608,2.375,5.93964,5.93964,0,0,0,2.34912,1.03222,14.10005,14.10005,0,0,0,2.32324.51612v1.833h-14.791v-1.833a18.8304,18.8304,0,0,0,2.439-.38721,4.72321,4.72321,0,0,0,1.9751-.85156,3.78713,3.78713,0,0,0,1.23877-2.22022,25.836,25.836,0,0,0,.33593-5.00781V14.92432a7.69358,7.69358,0,0,0-.3872-2.6587,4.1609,4.1609,0,0,0-1.11036-1.67773,5.09473,5.09473,0,0,0-1.96191-1.03271,9.8875,9.8875,0,0,0-2.29736-.38721V7.33545h12.48974l10.49219,27.49414,8.95752-23a22.61624,22.61624,0,0,0,.83789-2.64746,12.44209,12.44209,0,0,0,.37451-1.84668h11.94483V9.168a13.28112,13.28112,0,0,0-1.84571.23242,12.09337,12.09337,0,0,0-1.63916.38721,1.89011,1.89011,0,0,0-1.1875,1.03271,3.953,3.953,0,0,0-.30957,1.57422V38.80225a3.38168,3.38168,0,0,0,.30957,1.523,2.63484,2.63484,0,0,0,1.1875,1.084,5.97968,5.97968,0,0,0,1.65186.47754,13.66115,13.66115,0,0,0,1.88476.24512Z"/><path class="b" d="M186.33252,11.67187a18.00141,18.00141,0,0,1,3.79443,6.105,21.97607,21.97607,0,0,1,1.36817,7.9121,21.59558,21.59558,0,0,1-1.39356,7.92481,17.64453,17.64453,0,0,1-3.87256,6.06592A16.77527,16.77527,0,0,1,180.65332,43.5a17.91327,17.91327,0,0,1-13.82324-.09033,16.37348,16.37348,0,0,1-5.5625-3.9878,18.07819,18.07819,0,0,1-3.65283-6.07958,21.7696,21.7696,0,0,1-1.32959-7.65333,21.37828,21.37828,0,0,1,1.394-7.96386,18.55273,18.55273,0,0,1,3.84619-6.05323,16.612,16.612,0,0,1,5.64014-3.87207,17.71565,17.71565,0,0,1,13.59131.02588A16.43894,16.43894,0,0,1,186.33252,11.67187Zm-3.84619,25.96875a17.13666,17.13666,0,0,0,2.10351-5.31787,30.70677,30.70677,0,0,0,.65821-6.63379,30.43575,30.43575,0,0,0-.73535-6.91845,17.15711,17.15711,0,0,0-2.15577-5.36914,10.32534,10.32534,0,0,0-3.562-3.42041,9.70453,9.70453,0,0,0-4.90478-1.22608A9.40657,9.40657,0,0,0,168.624,10.1748a11.0324,11.0324,0,0,0-3.53613,3.79444,18.17932,18.17932,0,0,0-1.92334,5.31787,31.4131,31.4131,0,0,0-.63232,6.40185,30.75,30.75,0,0,0,.67138,6.71143,17.00763,17.00763,0,0,0,2.1167,5.31738,10.41617,10.41617,0,0,0,3.51026,3.54932,9.60623,9.60623,0,0,0,5.05957,1.27783,9.72482,9.72482,0,0,0,4.98193-1.29053A10.099,10.099,0,0,0,182.48633,37.64062Z"/><path class="b" d="M229.87988,9.168a7.15026,7.15026,0,0,0-1.626.29687,6.14163,6.14163,0,0,0-1.57422.65821,4.27578,4.27578,0,0,0-1.40821,1.394,16.76888,16.76888,0,0,0-1.04492,2.01367q-1.72851,4.10376-5.18847,12.79053-3.45851,8.68651-7.124,18.1084h-2.14258q-3.71776-9.99024-7.17675-19.25733-3.4585-9.26659-4.69825-12.51953a4.85392,4.85392,0,0,0-.82617-1.40674,6.02549,6.02549,0,0,0-1.36719-1.14892A5.4422,5.4422,0,0,0,194.1543,9.439a8.96268,8.96268,0,0,0-1.5752-.271V7.33545h15.15723V9.168a21.46291,21.46291,0,0,0-3.26563.38721q-1.33008.28418-1.3291,1.00683a2.67308,2.67308,0,0,0,.10254.6709q.10254.38745.18164.61963.95508,2.53052,3.09766,8.25195,2.14159,5.72241,6.09179,16.28858,1.96-4.77906,4.51758-11.28907,2.55469-6.50976,3.4336-8.939a21.58173,21.58173,0,0,0,.99414-3.25391,9.98542,9.98542,0,0,0,.14062-1.47168,1.20462,1.20462,0,0,0-.52832-.99365,4.77115,4.77115,0,0,0-1.40723-.68408,12.049,12.049,0,0,0-1.72949-.38721q-.87744-.12891-1.78125-.20654V7.33545h13.625Z"/><path class="b" d="M262.12109,33.1748l-.69726,10.79H231.01562v-1.833q.77491-.05127,2.06543-.21924a7.00618,7.00618,0,0,0,1.67774-.34864,2.35913,2.35913,0,0,0,1.14941-1.00634,3.39868,3.39868,0,0,0,.32227-1.57471V12.65283a3.7971,3.7971,0,0,0-.28418-1.51025,2.20258,2.20258,0,0,0-1.1875-1.07129,8.78972,8.78972,0,0,0-1.87207-.59375,14.21894,14.21894,0,0,0-1.8711-.30957V7.33545h28.34376v8.82812h-1.93555a11.94774,11.94774,0,0,0-2.2334-4.16894q-1.71679-2.20678-3.26563-2.41358-.80127-.10252-1.91015-.15478-1.11036-.05127-2.53027-.05176h-5.75586V23.93359h4.13086a8.24608,8.24608,0,0,0,2.90332-.37451,3.97153,3.97153,0,0,0,1.61328-1.252,6.67565,6.67565,0,0,0,.96777-2.00049,12.484,12.484,0,0,0,.5293-2.36182h1.93652v14.352h-1.93652a11.53455,11.53455,0,0,0-.55469-2.62011,6.681,6.681,0,0,0-.94238-2.00049,3.71975,3.71975,0,0,0-1.81934-1.31641,9.55729,9.55729,0,0,0-2.69726-.30957h-4.13086V37.02881a11.52281,11.52281,0,0,0,.23242,2.603,2.4092,2.4092,0,0,0,.90332,1.44287,3.86518,3.86518,0,0,0,1.833.63183,29.21759,29.21759,0,0,0,3.30468.1416h2.24512a22.25943,22.25943,0,0,0,2.34863-.10351,13.81445,13.81445,0,0,0,2.02735-.374,3.09967,3.09967,0,0,0,1.48437-.73584,16.50051,16.50051,0,0,0,2.49024-3.75586,25.2831,25.2831,0,0,0,1.665-3.70411Z"/><path class="b" d="M275.751,40.99609a3.31568,3.31568,0,0,1-1.0459,2.46534,3.55339,3.55339,0,0,1-4.98242,0,3.31837,3.31837,0,0,1-1.04493-2.46534,3.53668,3.53668,0,0,1,7.07325,0Zm-.23243-31.13086q0,1.29054-.85253,8.67334-.85109,7.38282-1.4961,14.27491h-2.01367q-.56837-6.89209-1.40723-14.27491-.83935-7.38281-.83886-8.67334a3.52071,3.52071,0,0,1,.92968-2.47851,3.32034,3.32034,0,0,1,4.75-.0127A3.50735,3.50735,0,0,1,275.51855,9.86523Z"/></svg>